<mxfile host="app.diagrams.net" agent="Mozilla/5.0 (Windows NT 10.0; Win64; x64) AppleWebKit/537.36 (KHTML, like Gecko) Chrome/114.0.0.0 YaBrowser/23.7.1.1266 (corp) Yowser/2.5 Safari/537.36" version="28.2.5">
  <diagram name="Страница — 1" id="YMjmdOzLHqc2aockIUOG">
    <mxGraphModel dx="1378" dy="796" grid="1" gridSize="10" guides="1" tooltips="1" connect="1" arrows="1" fold="1" page="1" pageScale="1" pageWidth="827" pageHeight="1169" math="0" shadow="0">
      <root>
        <mxCell id="0" />
        <mxCell id="1" parent="0" />
        <mxCell id="4heDc_8wYcMDbuXz5qqa-13" style="rounded=0;orthogonalLoop=1;jettySize=auto;html=1;strokeColor=default;endArrow=none;endFill=0;" parent="1" source="4heDc_8wYcMDbuXz5qqa-3" edge="1">
          <mxGeometry relative="1" as="geometry">
            <mxPoint x="170" y="80" as="targetPoint" />
          </mxGeometry>
        </mxCell>
        <mxCell id="4heDc_8wYcMDbuXz5qqa-30" style="edgeStyle=orthogonalEdgeStyle;rounded=0;orthogonalLoop=1;jettySize=auto;html=1;entryX=0;entryY=0.5;entryDx=0;entryDy=0;" parent="1" source="4heDc_8wYcMDbuXz5qqa-3" target="4heDc_8wYcMDbuXz5qqa-10" edge="1">
          <mxGeometry relative="1" as="geometry" />
        </mxCell>
        <mxCell id="i7H58cQTXMb6ud8BZnHR-6" style="edgeStyle=orthogonalEdgeStyle;rounded=0;orthogonalLoop=1;jettySize=auto;html=1;entryX=0;entryY=0.5;entryDx=0;entryDy=0;" edge="1" parent="1" source="4heDc_8wYcMDbuXz5qqa-3" target="i7H58cQTXMb6ud8BZnHR-5">
          <mxGeometry relative="1" as="geometry" />
        </mxCell>
        <mxCell id="i7H58cQTXMb6ud8BZnHR-21" style="edgeStyle=orthogonalEdgeStyle;rounded=0;orthogonalLoop=1;jettySize=auto;html=1;entryX=0;entryY=0.5;entryDx=0;entryDy=0;" edge="1" parent="1" source="4heDc_8wYcMDbuXz5qqa-3" target="i7H58cQTXMb6ud8BZnHR-20">
          <mxGeometry relative="1" as="geometry" />
        </mxCell>
        <mxCell id="4heDc_8wYcMDbuXz5qqa-3" value="Пользователь" style="rounded=0;whiteSpace=wrap;html=1;" parent="1" vertex="1">
          <mxGeometry x="110" y="240" width="120" height="60" as="geometry" />
        </mxCell>
        <mxCell id="4heDc_8wYcMDbuXz5qqa-36" style="edgeStyle=orthogonalEdgeStyle;rounded=0;orthogonalLoop=1;jettySize=auto;html=1;endArrow=none;endFill=0;" parent="1" source="4heDc_8wYcMDbuXz5qqa-4" edge="1">
          <mxGeometry relative="1" as="geometry">
            <mxPoint x="760" y="20" as="targetPoint" />
          </mxGeometry>
        </mxCell>
        <mxCell id="4heDc_8wYcMDbuXz5qqa-4" value="Объявление" style="rounded=0;whiteSpace=wrap;html=1;" parent="1" vertex="1">
          <mxGeometry x="700" y="240" width="120" height="60" as="geometry" />
        </mxCell>
        <mxCell id="4heDc_8wYcMDbuXz5qqa-49" style="edgeStyle=orthogonalEdgeStyle;rounded=0;orthogonalLoop=1;jettySize=auto;html=1;endArrow=none;endFill=0;" parent="1" source="4heDc_8wYcMDbuXz5qqa-6" edge="1">
          <mxGeometry relative="1" as="geometry">
            <mxPoint x="1140" y="130" as="targetPoint" />
          </mxGeometry>
        </mxCell>
        <mxCell id="i7H58cQTXMb6ud8BZnHR-3" style="edgeStyle=orthogonalEdgeStyle;rounded=0;orthogonalLoop=1;jettySize=auto;html=1;entryX=1;entryY=0.5;entryDx=0;entryDy=0;" edge="1" parent="1" source="4heDc_8wYcMDbuXz5qqa-6" target="i7H58cQTXMb6ud8BZnHR-31">
          <mxGeometry relative="1" as="geometry" />
        </mxCell>
        <mxCell id="4heDc_8wYcMDbuXz5qqa-6" value="Сорт" style="rounded=0;whiteSpace=wrap;html=1;" parent="1" vertex="1">
          <mxGeometry x="1080" y="240" width="120" height="60" as="geometry" />
        </mxCell>
        <mxCell id="4heDc_8wYcMDbuXz5qqa-31" style="edgeStyle=orthogonalEdgeStyle;rounded=0;orthogonalLoop=1;jettySize=auto;html=1;entryX=0;entryY=0.5;entryDx=0;entryDy=0;" parent="1" source="4heDc_8wYcMDbuXz5qqa-10" target="4heDc_8wYcMDbuXz5qqa-4" edge="1">
          <mxGeometry relative="1" as="geometry" />
        </mxCell>
        <mxCell id="4heDc_8wYcMDbuXz5qqa-10" value="публикует" style="rhombus;whiteSpace=wrap;html=1;" parent="1" vertex="1">
          <mxGeometry x="540" y="230" width="120" height="80" as="geometry" />
        </mxCell>
        <mxCell id="4heDc_8wYcMDbuXz5qqa-15" value="user_ID" style="ellipse;whiteSpace=wrap;html=1;" parent="1" vertex="1">
          <mxGeometry x="190" y="70" width="120" height="20" as="geometry" />
        </mxCell>
        <mxCell id="4heDc_8wYcMDbuXz5qqa-18" value="" style="endArrow=none;html=1;rounded=0;entryX=0;entryY=0.5;entryDx=0;entryDy=0;" parent="1" target="4heDc_8wYcMDbuXz5qqa-15" edge="1">
          <mxGeometry width="50" height="50" relative="1" as="geometry">
            <mxPoint x="170" y="80" as="sourcePoint" />
            <mxPoint x="250" y="90" as="targetPoint" />
          </mxGeometry>
        </mxCell>
        <mxCell id="4heDc_8wYcMDbuXz5qqa-23" style="edgeStyle=orthogonalEdgeStyle;rounded=0;orthogonalLoop=1;jettySize=auto;html=1;endArrow=none;endFill=0;" parent="1" source="4heDc_8wYcMDbuXz5qqa-20" edge="1">
          <mxGeometry relative="1" as="geometry">
            <mxPoint x="170" y="110.00000000000003" as="targetPoint" />
          </mxGeometry>
        </mxCell>
        <mxCell id="4heDc_8wYcMDbuXz5qqa-20" value="name" style="ellipse;whiteSpace=wrap;html=1;" parent="1" vertex="1">
          <mxGeometry x="190" y="100" width="120" height="20" as="geometry" />
        </mxCell>
        <mxCell id="4heDc_8wYcMDbuXz5qqa-25" style="edgeStyle=orthogonalEdgeStyle;rounded=0;orthogonalLoop=1;jettySize=auto;html=1;endArrow=none;endFill=0;" parent="1" source="4heDc_8wYcMDbuXz5qqa-24" edge="1">
          <mxGeometry relative="1" as="geometry">
            <mxPoint x="170" y="140.00000000000003" as="targetPoint" />
          </mxGeometry>
        </mxCell>
        <mxCell id="4heDc_8wYcMDbuXz5qqa-24" value="email" style="ellipse;whiteSpace=wrap;html=1;" parent="1" vertex="1">
          <mxGeometry x="190" y="130" width="120" height="20" as="geometry" />
        </mxCell>
        <mxCell id="4heDc_8wYcMDbuXz5qqa-27" style="edgeStyle=orthogonalEdgeStyle;rounded=0;orthogonalLoop=1;jettySize=auto;html=1;endArrow=none;endFill=0;" parent="1" source="4heDc_8wYcMDbuXz5qqa-26" edge="1">
          <mxGeometry relative="1" as="geometry">
            <mxPoint x="170" y="170" as="targetPoint" />
          </mxGeometry>
        </mxCell>
        <mxCell id="4heDc_8wYcMDbuXz5qqa-26" value="phone_number" style="ellipse;whiteSpace=wrap;html=1;" parent="1" vertex="1">
          <mxGeometry x="190" y="160" width="120" height="20" as="geometry" />
        </mxCell>
        <mxCell id="4heDc_8wYcMDbuXz5qqa-29" style="edgeStyle=orthogonalEdgeStyle;rounded=0;orthogonalLoop=1;jettySize=auto;html=1;endArrow=none;endFill=0;" parent="1" source="4heDc_8wYcMDbuXz5qqa-28" edge="1">
          <mxGeometry relative="1" as="geometry">
            <mxPoint x="170" y="200" as="targetPoint" />
          </mxGeometry>
        </mxCell>
        <mxCell id="4heDc_8wYcMDbuXz5qqa-28" value="role" style="ellipse;whiteSpace=wrap;html=1;" parent="1" vertex="1">
          <mxGeometry x="190" y="190" width="120" height="20" as="geometry" />
        </mxCell>
        <mxCell id="4heDc_8wYcMDbuXz5qqa-37" value="avaible_KG" style="ellipse;whiteSpace=wrap;html=1;" parent="1" vertex="1">
          <mxGeometry x="780" y="40" width="120" height="20" as="geometry" />
        </mxCell>
        <mxCell id="4heDc_8wYcMDbuXz5qqa-38" value="" style="endArrow=none;html=1;rounded=0;entryX=0;entryY=0.5;entryDx=0;entryDy=0;" parent="1" target="4heDc_8wYcMDbuXz5qqa-37" edge="1">
          <mxGeometry width="50" height="50" relative="1" as="geometry">
            <mxPoint x="760" y="50" as="sourcePoint" />
            <mxPoint x="840" y="60" as="targetPoint" />
          </mxGeometry>
        </mxCell>
        <mxCell id="4heDc_8wYcMDbuXz5qqa-39" style="edgeStyle=orthogonalEdgeStyle;rounded=0;orthogonalLoop=1;jettySize=auto;html=1;endArrow=none;endFill=0;" parent="1" source="4heDc_8wYcMDbuXz5qqa-40" edge="1">
          <mxGeometry relative="1" as="geometry">
            <mxPoint x="760" y="80.00000000000003" as="targetPoint" />
          </mxGeometry>
        </mxCell>
        <mxCell id="4heDc_8wYcMDbuXz5qqa-40" value="title" style="ellipse;whiteSpace=wrap;html=1;" parent="1" vertex="1">
          <mxGeometry x="780" y="70" width="120" height="20" as="geometry" />
        </mxCell>
        <mxCell id="4heDc_8wYcMDbuXz5qqa-41" style="edgeStyle=orthogonalEdgeStyle;rounded=0;orthogonalLoop=1;jettySize=auto;html=1;endArrow=none;endFill=0;" parent="1" source="4heDc_8wYcMDbuXz5qqa-42" edge="1">
          <mxGeometry relative="1" as="geometry">
            <mxPoint x="760" y="110.00000000000003" as="targetPoint" />
          </mxGeometry>
        </mxCell>
        <mxCell id="4heDc_8wYcMDbuXz5qqa-42" value="description" style="ellipse;whiteSpace=wrap;html=1;" parent="1" vertex="1">
          <mxGeometry x="780" y="100" width="120" height="20" as="geometry" />
        </mxCell>
        <mxCell id="4heDc_8wYcMDbuXz5qqa-43" style="edgeStyle=orthogonalEdgeStyle;rounded=0;orthogonalLoop=1;jettySize=auto;html=1;endArrow=none;endFill=0;" parent="1" source="4heDc_8wYcMDbuXz5qqa-44" edge="1">
          <mxGeometry relative="1" as="geometry">
            <mxPoint x="760" y="140" as="targetPoint" />
          </mxGeometry>
        </mxCell>
        <mxCell id="4heDc_8wYcMDbuXz5qqa-44" value="price_KG" style="ellipse;whiteSpace=wrap;html=1;" parent="1" vertex="1">
          <mxGeometry x="780" y="130" width="120" height="20" as="geometry" />
        </mxCell>
        <mxCell id="4heDc_8wYcMDbuXz5qqa-45" style="edgeStyle=orthogonalEdgeStyle;rounded=0;orthogonalLoop=1;jettySize=auto;html=1;endArrow=none;endFill=0;" parent="1" source="4heDc_8wYcMDbuXz5qqa-46" edge="1">
          <mxGeometry relative="1" as="geometry">
            <mxPoint x="760" y="170" as="targetPoint" />
          </mxGeometry>
        </mxCell>
        <mxCell id="4heDc_8wYcMDbuXz5qqa-46" value="address" style="ellipse;whiteSpace=wrap;html=1;" parent="1" vertex="1">
          <mxGeometry x="780" y="160" width="120" height="20" as="geometry" />
        </mxCell>
        <mxCell id="4heDc_8wYcMDbuXz5qqa-48" style="edgeStyle=orthogonalEdgeStyle;rounded=0;orthogonalLoop=1;jettySize=auto;html=1;endArrow=none;endFill=0;" parent="1" source="4heDc_8wYcMDbuXz5qqa-47" edge="1">
          <mxGeometry relative="1" as="geometry">
            <mxPoint x="760" y="200" as="targetPoint" />
          </mxGeometry>
        </mxCell>
        <mxCell id="4heDc_8wYcMDbuXz5qqa-47" value="starus" style="ellipse;whiteSpace=wrap;html=1;" parent="1" vertex="1">
          <mxGeometry x="780" y="190" width="120" height="20" as="geometry" />
        </mxCell>
        <mxCell id="4heDc_8wYcMDbuXz5qqa-50" value="variety_ID" style="ellipse;whiteSpace=wrap;html=1;" parent="1" vertex="1">
          <mxGeometry x="1160" y="120" width="120" height="20" as="geometry" />
        </mxCell>
        <mxCell id="4heDc_8wYcMDbuXz5qqa-51" value="" style="endArrow=none;html=1;rounded=0;entryX=0;entryY=0.5;entryDx=0;entryDy=0;" parent="1" target="4heDc_8wYcMDbuXz5qqa-50" edge="1">
          <mxGeometry width="50" height="50" relative="1" as="geometry">
            <mxPoint x="1140" y="130" as="sourcePoint" />
            <mxPoint x="1220" y="140" as="targetPoint" />
          </mxGeometry>
        </mxCell>
        <mxCell id="4heDc_8wYcMDbuXz5qqa-52" style="edgeStyle=orthogonalEdgeStyle;rounded=0;orthogonalLoop=1;jettySize=auto;html=1;endArrow=none;endFill=0;" parent="1" source="4heDc_8wYcMDbuXz5qqa-53" edge="1">
          <mxGeometry relative="1" as="geometry">
            <mxPoint x="1140" y="160.00000000000003" as="targetPoint" />
          </mxGeometry>
        </mxCell>
        <mxCell id="4heDc_8wYcMDbuXz5qqa-53" value="name" style="ellipse;whiteSpace=wrap;html=1;" parent="1" vertex="1">
          <mxGeometry x="1160" y="150" width="120" height="20" as="geometry" />
        </mxCell>
        <mxCell id="4heDc_8wYcMDbuXz5qqa-54" style="edgeStyle=orthogonalEdgeStyle;rounded=0;orthogonalLoop=1;jettySize=auto;html=1;endArrow=none;endFill=0;" parent="1" source="4heDc_8wYcMDbuXz5qqa-55" edge="1">
          <mxGeometry relative="1" as="geometry">
            <mxPoint x="1140" y="190" as="targetPoint" />
          </mxGeometry>
        </mxCell>
        <mxCell id="4heDc_8wYcMDbuXz5qqa-55" value="color" style="ellipse;whiteSpace=wrap;html=1;" parent="1" vertex="1">
          <mxGeometry x="1160" y="180" width="120" height="20" as="geometry" />
        </mxCell>
        <mxCell id="i7H58cQTXMb6ud8BZnHR-8" style="edgeStyle=orthogonalEdgeStyle;rounded=0;orthogonalLoop=1;jettySize=auto;html=1;endArrow=none;endFill=0;" edge="1" parent="1" source="i7H58cQTXMb6ud8BZnHR-4">
          <mxGeometry relative="1" as="geometry">
            <mxPoint x="630" y="570" as="targetPoint" />
          </mxGeometry>
        </mxCell>
        <mxCell id="i7H58cQTXMb6ud8BZnHR-4" value="Заказ" style="rounded=0;whiteSpace=wrap;html=1;" vertex="1" parent="1">
          <mxGeometry x="570" y="360" width="120" height="60" as="geometry" />
        </mxCell>
        <mxCell id="i7H58cQTXMb6ud8BZnHR-7" style="edgeStyle=orthogonalEdgeStyle;rounded=0;orthogonalLoop=1;jettySize=auto;html=1;entryX=0;entryY=0.5;entryDx=0;entryDy=0;" edge="1" parent="1" source="i7H58cQTXMb6ud8BZnHR-5" target="i7H58cQTXMb6ud8BZnHR-4">
          <mxGeometry relative="1" as="geometry" />
        </mxCell>
        <mxCell id="i7H58cQTXMb6ud8BZnHR-5" value="Размещает" style="rhombus;whiteSpace=wrap;html=1;" vertex="1" parent="1">
          <mxGeometry x="354" y="350" width="120" height="80" as="geometry" />
        </mxCell>
        <mxCell id="i7H58cQTXMb6ud8BZnHR-9" value="order_ID" style="ellipse;whiteSpace=wrap;html=1;" vertex="1" parent="1">
          <mxGeometry x="650" y="440" width="120" height="20" as="geometry" />
        </mxCell>
        <mxCell id="i7H58cQTXMb6ud8BZnHR-10" value="" style="endArrow=none;html=1;rounded=0;entryX=0;entryY=0.5;entryDx=0;entryDy=0;" edge="1" parent="1" target="i7H58cQTXMb6ud8BZnHR-9">
          <mxGeometry width="50" height="50" relative="1" as="geometry">
            <mxPoint x="630" y="450" as="sourcePoint" />
            <mxPoint x="710" y="460" as="targetPoint" />
          </mxGeometry>
        </mxCell>
        <mxCell id="i7H58cQTXMb6ud8BZnHR-11" style="edgeStyle=orthogonalEdgeStyle;rounded=0;orthogonalLoop=1;jettySize=auto;html=1;endArrow=none;endFill=0;" edge="1" parent="1" source="i7H58cQTXMb6ud8BZnHR-12">
          <mxGeometry relative="1" as="geometry">
            <mxPoint x="630" y="480" as="targetPoint" />
          </mxGeometry>
        </mxCell>
        <mxCell id="i7H58cQTXMb6ud8BZnHR-12" value="buyer_id" style="ellipse;whiteSpace=wrap;html=1;" vertex="1" parent="1">
          <mxGeometry x="650" y="470" width="120" height="20" as="geometry" />
        </mxCell>
        <mxCell id="i7H58cQTXMb6ud8BZnHR-13" style="edgeStyle=orthogonalEdgeStyle;rounded=0;orthogonalLoop=1;jettySize=auto;html=1;endArrow=none;endFill=0;" edge="1" parent="1" source="i7H58cQTXMb6ud8BZnHR-14">
          <mxGeometry relative="1" as="geometry">
            <mxPoint x="630" y="510" as="targetPoint" />
          </mxGeometry>
        </mxCell>
        <mxCell id="i7H58cQTXMb6ud8BZnHR-14" value="adress_to" style="ellipse;whiteSpace=wrap;html=1;" vertex="1" parent="1">
          <mxGeometry x="650" y="500" width="120" height="20" as="geometry" />
        </mxCell>
        <mxCell id="i7H58cQTXMb6ud8BZnHR-15" style="edgeStyle=orthogonalEdgeStyle;rounded=0;orthogonalLoop=1;jettySize=auto;html=1;endArrow=none;endFill=0;" edge="1" parent="1" source="i7H58cQTXMb6ud8BZnHR-16">
          <mxGeometry relative="1" as="geometry">
            <mxPoint x="630" y="540" as="targetPoint" />
          </mxGeometry>
        </mxCell>
        <mxCell id="i7H58cQTXMb6ud8BZnHR-16" value="time" style="ellipse;whiteSpace=wrap;html=1;" vertex="1" parent="1">
          <mxGeometry x="650" y="530" width="120" height="20" as="geometry" />
        </mxCell>
        <mxCell id="i7H58cQTXMb6ud8BZnHR-17" style="edgeStyle=orthogonalEdgeStyle;rounded=0;orthogonalLoop=1;jettySize=auto;html=1;endArrow=none;endFill=0;" edge="1" parent="1" source="i7H58cQTXMb6ud8BZnHR-18">
          <mxGeometry relative="1" as="geometry">
            <mxPoint x="630" y="570" as="targetPoint" />
          </mxGeometry>
        </mxCell>
        <mxCell id="i7H58cQTXMb6ud8BZnHR-18" value="total_price" style="ellipse;whiteSpace=wrap;html=1;" vertex="1" parent="1">
          <mxGeometry x="650" y="560" width="120" height="20" as="geometry" />
        </mxCell>
        <mxCell id="i7H58cQTXMb6ud8BZnHR-23" style="edgeStyle=orthogonalEdgeStyle;rounded=0;orthogonalLoop=1;jettySize=auto;html=1;endArrow=none;endFill=0;" edge="1" parent="1" source="i7H58cQTXMb6ud8BZnHR-19">
          <mxGeometry relative="1" as="geometry">
            <mxPoint x="660" y="50" as="targetPoint" />
          </mxGeometry>
        </mxCell>
        <mxCell id="i7H58cQTXMb6ud8BZnHR-36" style="edgeStyle=orthogonalEdgeStyle;rounded=0;orthogonalLoop=1;jettySize=auto;html=1;entryX=0.25;entryY=0;entryDx=0;entryDy=0;" edge="1" parent="1" source="i7H58cQTXMb6ud8BZnHR-19" target="4heDc_8wYcMDbuXz5qqa-4">
          <mxGeometry relative="1" as="geometry" />
        </mxCell>
        <mxCell id="i7H58cQTXMb6ud8BZnHR-19" value="Отзыв" style="rounded=0;whiteSpace=wrap;html=1;" vertex="1" parent="1">
          <mxGeometry x="600" y="140" width="120" height="60" as="geometry" />
        </mxCell>
        <mxCell id="i7H58cQTXMb6ud8BZnHR-22" style="edgeStyle=orthogonalEdgeStyle;rounded=0;orthogonalLoop=1;jettySize=auto;html=1;entryX=0;entryY=0.5;entryDx=0;entryDy=0;" edge="1" parent="1" source="i7H58cQTXMb6ud8BZnHR-20" target="i7H58cQTXMb6ud8BZnHR-19">
          <mxGeometry relative="1" as="geometry" />
        </mxCell>
        <mxCell id="i7H58cQTXMb6ud8BZnHR-20" value="Пишет" style="rhombus;whiteSpace=wrap;html=1;" vertex="1" parent="1">
          <mxGeometry x="420" y="160" width="120" height="80" as="geometry" />
        </mxCell>
        <mxCell id="i7H58cQTXMb6ud8BZnHR-24" value="reviever_ID" style="ellipse;whiteSpace=wrap;html=1;" vertex="1" parent="1">
          <mxGeometry x="520" y="40" width="120" height="20" as="geometry" />
        </mxCell>
        <mxCell id="i7H58cQTXMb6ud8BZnHR-25" value="" style="endArrow=none;html=1;rounded=0;entryX=0;entryY=0.5;entryDx=0;entryDy=0;" edge="1" parent="1">
          <mxGeometry width="50" height="50" relative="1" as="geometry">
            <mxPoint x="640" y="49.76" as="sourcePoint" />
            <mxPoint x="660.000000000002" y="49.76" as="targetPoint" />
          </mxGeometry>
        </mxCell>
        <mxCell id="i7H58cQTXMb6ud8BZnHR-26" style="edgeStyle=orthogonalEdgeStyle;rounded=0;orthogonalLoop=1;jettySize=auto;html=1;endArrow=none;endFill=0;" edge="1" parent="1">
          <mxGeometry relative="1" as="geometry">
            <mxPoint x="640" y="79.76000000000003" as="targetPoint" />
            <mxPoint x="660" y="79.75999999999995" as="sourcePoint" />
          </mxGeometry>
        </mxCell>
        <mxCell id="i7H58cQTXMb6ud8BZnHR-27" value="listing_ID" style="ellipse;whiteSpace=wrap;html=1;" vertex="1" parent="1">
          <mxGeometry x="520" y="70" width="120" height="20" as="geometry" />
        </mxCell>
        <mxCell id="i7H58cQTXMb6ud8BZnHR-28" style="edgeStyle=orthogonalEdgeStyle;rounded=0;orthogonalLoop=1;jettySize=auto;html=1;endArrow=none;endFill=0;" edge="1" parent="1">
          <mxGeometry relative="1" as="geometry">
            <mxPoint x="640" y="109.76000000000003" as="targetPoint" />
            <mxPoint x="660" y="109.76" as="sourcePoint" />
          </mxGeometry>
        </mxCell>
        <mxCell id="i7H58cQTXMb6ud8BZnHR-29" value="rating" style="ellipse;whiteSpace=wrap;html=1;" vertex="1" parent="1">
          <mxGeometry x="520" y="100" width="120" height="20" as="geometry" />
        </mxCell>
        <mxCell id="i7H58cQTXMb6ud8BZnHR-32" style="edgeStyle=orthogonalEdgeStyle;rounded=0;orthogonalLoop=1;jettySize=auto;html=1;entryX=1;entryY=0.5;entryDx=0;entryDy=0;" edge="1" parent="1" source="i7H58cQTXMb6ud8BZnHR-31" target="4heDc_8wYcMDbuXz5qqa-4">
          <mxGeometry relative="1" as="geometry" />
        </mxCell>
        <mxCell id="i7H58cQTXMb6ud8BZnHR-31" value="Относится к" style="rhombus;whiteSpace=wrap;html=1;" vertex="1" parent="1">
          <mxGeometry x="900" y="230" width="120" height="80" as="geometry" />
        </mxCell>
        <mxCell id="i7H58cQTXMb6ud8BZnHR-33" value="listing_ID" style="ellipse;whiteSpace=wrap;html=1;" vertex="1" parent="1">
          <mxGeometry x="780" y="10" width="120" height="20" as="geometry" />
        </mxCell>
        <mxCell id="i7H58cQTXMb6ud8BZnHR-34" value="" style="endArrow=none;html=1;rounded=0;entryX=0;entryY=0.5;entryDx=0;entryDy=0;" edge="1" parent="1">
          <mxGeometry width="50" height="50" relative="1" as="geometry">
            <mxPoint x="760" y="19.759999999999998" as="sourcePoint" />
            <mxPoint x="780" y="19.759999999999998" as="targetPoint" />
          </mxGeometry>
        </mxCell>
      </root>
    </mxGraphModel>
  </diagram>
</mxfile>
